HIERARCHY
ROOT hip
{
  OFFSET 0 0 0
  CHANNELS 6 Xposition Yposition Zposition Zrotation Yrotation Xrotation
  JOINT abdomen
  {
    OFFSET 0 20.6881 -0.73152
    CHANNELS 3 Zrotation Xrotation Yrotation
    JOINT chest
    {
      OFFSET 0 11.7043 -0.48768
      CHANNELS 3 Zrotation Xrotation Yrotation
      JOINT neck
      {
        OFFSET 0 22.1894 -2.19456
        CHANNELS 3 Zrotation Xrotation Yrotation
        JOINT head
        {
          OFFSET -0.24384 7.07133 1.2192
          CHANNELS 3 Zrotation Xrotation Yrotation
          JOINT leftEye
          {
            OFFSET 4.14528 8.04674 8.04672
            CHANNELS 3 Zrotation Xrotation Yrotation
            End Site
            {
              OFFSET 1 0 0
            }
          }
          JOINT rightEye
          {
            OFFSET -3.6576 8.04674 8.04672
            CHANNELS 3 Zrotation Xrotation Yrotation
            End Site
            {
              OFFSET 1 0 0
            }
          }
        }
      }
      JOINT rCollar
      {
        OFFSET -2.68224 19.2634 -4.8768
        CHANNELS 3 Zrotation Xrotation Yrotation
        JOINT rShldr
        {
          OFFSET -8.77824 -1.95073 1.46304
          CHANNELS 3 Zrotation Xrotation Yrotation
          JOINT rForeArm
          {
            OFFSET -28.1742 -1.7115 0.48768
            CHANNELS 3 Zrotation Xrotation Yrotation
            JOINT rHand
            {
              OFFSET -22.5879 0.773209 7.07136
              CHANNELS 3 Zrotation Xrotation Yrotation
              JOINT rThumb1
              {
                OFFSET -1.2192 -0.487915 3.41376
                CHANNELS 3 Zrotation Xrotation Yrotation
                JOINT rThumb2
                {
                  OFFSET -3.37035 -0.52449 3.41376
                  CHANNELS 3 Zrotation Xrotation Yrotation
                  End Site
                  {
                    OFFSET -1.78271 -1.18214 1.43049
                  }
                }
              }
              JOINT rIndex1
              {
                OFFSET -7.75947 0.938293 5.60832
                CHANNELS 3 Zrotation Xrotation Yrotation
                JOINT rIndex2
                {
                  OFFSET -2.54057 -0.884171 1.56538
                  CHANNELS 3 Zrotation Xrotation Yrotation
                  End Site
                  {
                    OFFSET -1.62519 -0.234802 1.16502
                  }
                }
              }
              JOINT rMid1
              {
                OFFSET -8.24714 1.18213 3.41376
                CHANNELS 3 Zrotation Xrotation Yrotation
                JOINT rMid2
                {
                  OFFSET -3.10165 -0.590103 1.0647
                  CHANNELS 3 Zrotation Xrotation Yrotation
                  End Site
                  {
                    OFFSET -2.48547 -0.328903 0.83742
                  }
                }
              }
              JOINT rRing1
              {
                OFFSET -8.82822 0.546677 1.51678
                CHANNELS 3 Zrotation Xrotation Yrotation
                JOINT rRing2
                {
                  OFFSET -2.60934 -0.819778 -0.0198488
                  CHANNELS 3 Zrotation Xrotation Yrotation
                  End Site
                  {
                    OFFSET -2.33842 -0.294052 0.168128
                  }
                }
              }
              JOINT rPinky1
              {
                OFFSET -8.27202 -0.0477905 -0.4584
                CHANNELS 3 Zrotation Xrotation Yrotation
                JOINT rPinky2
                {
                  OFFSET -1.82734 -0.647385 -0.700984
                  CHANNELS 3 Zrotation Xrotation Yrotation
                  End Site
                  {
                    OFFSET -1.69225 -0.51767 -0.607171
                  }
                }
              }
            }
          }
        }
      }
      JOINT lCollar
      {
        OFFSET 2.68224 19.2634 -4.8768
        CHANNELS 3 Zrotation Xrotation Yrotation
        JOINT lShldr
        {
          OFFSET 8.77824 -1.95073 1.46304
          CHANNELS 3 Zrotation Xrotation Yrotation
          JOINT lForeArm
          {
            OFFSET 28.1742 -1.7115 0.48768
            CHANNELS 3 Zrotation Xrotation Yrotation
            JOINT lHand
            {
              OFFSET 22.5879 0.773209 7.07136
              CHANNELS 3 Zrotation Xrotation Yrotation
              JOINT lThumb1
              {
                OFFSET 1.2192 -0.487915 3.41376
                CHANNELS 3 Zrotation Xrotation Yrotation
                JOINT lThumb2
                {
                  OFFSET 3.37035 -0.52449 3.41376
                  CHANNELS 3 Zrotation Xrotation Yrotation
                  End Site
                  {
                    OFFSET 1.78271 -1.18214 1.43049
                  }
                }
              }
              JOINT lIndex1
              {
                OFFSET 7.75947 0.938293 5.60832
                CHANNELS 3 Zrotation Xrotation Yrotation
                JOINT lIndex2
                {
                  OFFSET 2.54057 -0.884171 1.56538
                  CHANNELS 3 Zrotation Xrotation Yrotation
                  End Site
                  {
                    OFFSET 1.62519 -0.234802 1.16502
                  }
                }
              }
              JOINT lMid1
              {
                OFFSET 8.24714 1.18213 3.41376
                CHANNELS 3 Zrotation Xrotation Yrotation
                JOINT lMid2
                {
                  OFFSET 3.10165 -0.590103 1.0647
                  CHANNELS 3 Zrotation Xrotation Yrotation
                  End Site
                  {
                    OFFSET 2.48547 -0.328903 0.83742
                  }
                }
              }
              JOINT lRing1
              {
                OFFSET 8.82822 0.546677 1.51678
                CHANNELS 3 Zrotation Xrotation Yrotation
                JOINT lRing2
                {
                  OFFSET 2.60934 -0.819778 -0.0198488
                  CHANNELS 3 Zrotation Xrotation Yrotation
                  End Site
                  {
                    OFFSET 2.33842 -0.294052 0.168128
                  }
                }
              }
              JOINT lPinky1
              {
                OFFSET 8.27202 -0.0477905 -0.4584
                CHANNELS 3 Zrotation Xrotation Yrotation
                JOINT lPinky2
                {
                  OFFSET 1.82734 -0.647385 -0.700984
                  CHANNELS 3 Zrotation Xrotation Yrotation
                  End Site
                  {
                    OFFSET 1.69225 -0.51767 -0.607171
                  }
                }
              }
            }
          }
        }
      }
    }
  }
  JOINT rButtock
  {
    OFFSET -8.77824 4.35084 1.2192
    CHANNELS 3 Zrotation Xrotation Yrotation
    JOINT rThigh
    {
      OFFSET 0 -1.70687 -2.19456
      CHANNELS 3 Zrotation Xrotation Yrotation
      JOINT rShin
      {
        OFFSET 0 -36.8199 0.73152
        CHANNELS 3 Zrotation Xrotation Yrotation
        JOINT rFoot
        {
          OFFSET 0.73152 -45.1104 -5.12064
          CHANNELS 3 Zrotation Xrotation Yrotation
          End Site
          {
            OFFSET -1.1221 -3.69964 12.103
          }
        }
      }
    }
  }
  JOINT lButtock
  {
    OFFSET 8.77824 4.35084 1.2192
    CHANNELS 3 Zrotation Xrotation Yrotation
    JOINT lThigh
    {
      OFFSET 0 -1.70687 -2.19456
      CHANNELS 3 Zrotation Xrotation Yrotation
      JOINT lShin
      {
        OFFSET 0 -36.8199 0.73152
        CHANNELS 3 Zrotation Xrotation Yrotation
        JOINT lFoot
        {
          OFFSET -0.73152 -45.1104 -5.12064
          CHANNELS 3 Zrotation Xrotation Yrotation
          End Site
          {
            OFFSET 1.1221 -3.69964 12.103
          }
        }
      }
    }
  }
}
MOTION
Frames:	6
Frame Time:	0.03333
-31.3999 59.325799999999994 23.2929 -89.142183 -72.249598 89.757245 14.107229 8.088889 119.24394 -5.135405 1.648145 -104.313542 13.853198 15.633198 54.327196 -25.259719 -5.186581 -51.935393 5.935622 0.258361 4.980251 5.003254 0.541521 12.346879 -157.288901 -4.640572 162.611692 -55.997541 2.434784 23.496191 14.502186 -6.839156 -97.426904 165.575471 -17.853782 137.812455 -158.462046 17.433645 81.970668 52.977031 -62.348825 54.899177 -65.951439 29.512627 34.515682 164.698458 -51.516986 40.462089 -160.299443 -4.83537 145.296047 -152.224762 -57.385099 155.8831 -1.689591 -2.682392 10.733834 -159.140569 -33.24924 -177.662929 -43.51715 -34.176665 -33.164082 -30.840045 -65.557528 -58.561692 -4.886804 -30.280134 1.723346 -76.590334 31.944938 20.164051 -171.939621 15.824454 -107.407562 -153.926306 -32.552057 -133.841596 163.351763 2.116931 -80.417292 -141.877252 -46.313907 -79.308018 163.01771 -4.025558 -109.213634 -178.559078 17.002153 -129.570364 -2.114777 -0.325302 3.243513 169.548266 -2.024341 -136.874925 1.198065 -62.887205 6.439753 163.77339 1.788754 176.938338 113.053768 4.993351 163.211422 48.833637 -79.165996 88.001993 -79.856212 36.451667 -54.593672 64.27718 49.968059 -57.013114 -39.470403 -16.078692 109.129709 -18.802923 -17.312423 -34.140092 -0.720857 2.949593 13.739971 79.059244 -68.383043 -180.0 80.898102 -30.370208 -16.156312 6.697062 -51.868985 -90.059731
-31.7632 58.9486 23.3341 -90.371838 -71.892427 91.138242 16.566776 11.704036 -2.75921 -0.73986 -8.802173 17.274363 -4.031849 22.079302 -75.782093 31.208086 0.362242 81.501597 9.738486 0.460857 5.405798 6.067598 0.743573 13.960567 -1.979723 -0.907286 -0.755077 -91.620998 -37.784435 -156.418409 -172.985258 23.063287 -116.848487 -5.053984 28.268114 -5.260148 179.096023 -2.259198 88.759879 162.341838 -22.257357 109.640802 -18.752441 -9.081078 5.569358 33.23364 -75.863223 -69.138529 -161.224317 -7.538044 145.792904 -175.739894 -81.645256 136.734693 -0.984703 -1.403117 9.057887 -82.940894 80.138408 90.47311 -144.320229 -12.689979 -123.064849 -102.721262 -15.577375 -95.016379 80.812681 65.054018 -82.834731 -68.087718 -20.509149 -81.428654 34.930866 -8.887931 -21.509287 -6.852961 5.000067 1.735586 90.088488 30.172825 -46.026012 2.578439 -8.356098 -20.346569 19.851926 -4.33566 -6.238714 -110.137547 -41.182293 -28.445415 89.283752 63.112505 -82.166156 159.191422 30.887331 -142.138505 135.027827 37.236321 -149.682208 147.319572 15.061087 -164.517219 11.63938 65.181936 -79.944588 69.385283 -7.575463 87.216063 -127.732154 72.311407 -47.098887 93.34204 82.041516 -3.234585 -40.425026 9.132684 84.641478 65.706238 -58.347711 -3.175226 85.036667 60.553969 47.657639 -120.779272 -35.298232 121.20699 60.225973 -74.913755 -43.472287 -168.31911 -70.94457 76.791137
-32.0285 58.4706 23.465700000000002 -92.100297 -72.181829 93.328549 16.228452 10.757229 -2.42797 -0.435523 -8.019544 16.816914 -5.396157 22.349702 -76.285045 31.585643 0.602197 79.729532 14.701991 1.412677 10.917732 1.447632 0.191735 15.088708 -157.133076 -66.201728 178.726067 -177.544713 -42.783922 -133.12753 100.988465 -0.005203 162.5919 -162.138334 58.193114 133.295747 -0.982778 -13.875439 -1.261891 14.269124 4.96039 0.873577 -1.208609 -29.599246 2.903224 -44.536452 -70.285359 -127.063184 85.727866 -84.397536 56.487428 93.050919 -62.323937 56.190567 -1.474233 -44.435938 -6.913561 10.422675 0.68286 2.042301 77.940008 80.543348 -49.037008 -174.817805 56.301918 -164.230156 -3.184511 -18.472251 -0.167863 -72.756587 22.204707 7.935652 -167.597853 7.89631 -108.536774 -155.394628 -28.351431 -135.004995 8.772483 -1.589188 -7.373176 122.253022 -4.591284 -108.698612 24.29809 -2.711047 -3.026469 -112.789024 -32.716788 -26.303606 -5.676764 -25.157339 3.40026 7.343529 25.66083 -10.185442 3.403344 -46.253884 -0.162238 159.252247 2.678335 171.269691 -31.508615 -12.400825 -24.900224 43.01556 18.751866 12.752219 -94.151085 50.104955 -55.055961 77.947318 59.320931 -79.594502 -37.316658 -28.613492 -172.009183 -106.436279 77.882131 8.066291 79.394695 59.436297 48.864751 -119.384981 -38.254406 -180.0 -90.461869 -48.375815 -97.006385 -30.346016 8.500775 -178.224117
-32.3065 58.6118 23.5412 -90.968835 -72.648779 92.439614 13.539499 7.332911 90.026812 -4.951999 -1.571019 -75.314036 15.769671 22.994224 98.593485 -29.485881 17.963515 -94.651418 17.273459 2.711845 17.714682 1.085874 0.122982 12.922796 -53.037771 -84.10076 -72.486166 -0.268402 17.649888 -50.282164 39.415759 -84.345452 -60.565561 162.964647 -26.321612 137.548504 -172.212705 5.220504 89.63251 -132.442924 24.502307 55.774493 134.796448 -60.622355 95.12917 163.337994 12.014542 147.77041 -0.085725 0.971588 -3.253515 122.726874 -67.674856 105.012657 -1.594288 -15.303088 2.371068 -39.77685 75.624167 48.899576 -153.910311 9.491008 -134.278528 16.65969 24.63015 -24.868424 149.592866 19.177187 -151.495349 -124.443543 -17.205501 -156.973768 176.563825 26.483794 -106.210385 -143.152197 -44.658166 -124.967569 -7.235794 -14.943983 -5.322456 -32.000643 -84.407469 28.31742 -115.316041 -71.892072 -86.936666 31.349899 -68.684521 106.802261 165.847061 -14.775861 -145.236704 83.010137 68.113652 -74.959882 6.206547 -48.206602 1.460469 -172.809665 72.152762 154.815915 116.598288 -11.955371 162.597444 137.293238 -62.303001 174.083319 25.433864 7.545443 26.201068 -27.967446 13.839827 93.839022 37.554786 -26.562569 -65.10425 -172.65946 15.229776 82.318828 -1.437941 4.487757 17.786729 78.293232 -71.984016 78.069311 29.814051 78.890238 -113.76373 5.90432 -11.414264 86.642865
-32.6405 58.8192 23.5482 -89.82909 -73.054733 91.144649 16.00014 9.595997 -2.062475 -0.981842 -7.421915 16.928154 -0.529433 15.503309 -22.341331 12.260418 -20.743499 25.463252 16.972301 3.062294 20.31362 1.981349 0.199806 11.515757 -7.969134 -68.870231 -24.504082 -63.332937 -31.974722 -80.425833 -173.645723 10.653427 -120.325682 -5.132068 29.841246 -3.399734 -9.547708 -7.160771 -2.040346 -109.673225 -27.076155 109.917275 0.370865 -30.52861 4.868143 -151.399934 51.721061 169.470757 -33.955243 53.378317 26.318929 -91.435854 70.712174 72.909144 -3.67658 -0.349754 7.294277 -161.003352 -32.44165 177.98985 -23.080925 -15.289146 -15.994775 4.61108 -69.999491 -11.68366 126.876625 51.28932 -128.579089 -58.231479 -37.939911 -96.078595 -13.945607 -64.595875 -47.717315 10.301685 57.086511 0.43359 8.243291 -2.189151 -4.335867 124.324102 -14.807888 -110.350198 19.224131 -10.630467 1.525525 55.55883 30.512233 -82.692638 91.842997 62.310428 -80.775888 92.193451 64.847785 -78.671727 10.598474 -4.489548 -10.664943 149.413823 77.829917 -179.661163 115.878133 9.753328 167.609154 96.368728 38.164919 -176.276275 132.360035 71.805748 30.298819 -115.580539 75.26851 180.0 -47.826169 -21.477403 -134.993934 149.890019 21.596452 143.790692 -56.476652 8.686842 -23.761082 127.203583 -28.958992 -0.0 -88.620274 37.495214 -107.452433 148.262744 31.420352 158.618254
-33.0163 58.8921 23.5227 -89.227917 -73.373796 90.108133 13.762626 6.911995 116.16669 -4.513683 1.40318 -100.624159 -4.284194 21.784561 -64.614083 29.965509 -5.920958 68.224032 16.298022 2.890209 19.983104 2.782645 0.262268 10.766523 -157.475035 -2.317372 165.103842 136.096306 9.100777 154.463877 -15.576174 15.793342 66.587778 -0.135636 15.576222 -3.996862 -76.768547 37.676715 28.215251 1.914457 -22.117953 41.162275 -174.076633 -14.693935 110.408285 -172.542277 41.043308 79.027061 4.623834 -21.906399 -4.600616 3.226476 -13.236758 6.675005 -73.70037 -80.021077 -87.017557 -136.054639 59.480119 151.769306 -165.716173 20.718023 -132.420557 35.975046 48.717637 -41.589525 9.955165 24.85066 -13.053801 -69.066493 5.689213 -34.046056 37.426798 11.122709 -32.412207 -7.479728 4.081547 -0.792226 169.056577 2.082019 -83.87355 -3.705994 -49.817295 -15.4527 141.168829 26.372779 -98.817443 -80.236546 -67.234966 -72.030842 162.812912 -5.49926 -145.135928 2.28578 29.217668 0.608869 10.337962 -3.686422 -11.300428 -58.57312 87.278631 29.972594 10.371674 63.019247 -73.564651 -70.70371 30.1299 35.082296 -138.833098 70.795809 -32.335234 107.074971 75.596891 73.431845 9.702864 41.211619 -42.699184 57.357241 -27.53417 7.603328 -1.358526 5.125497 14.866639 77.374129 -68.68102 76.911575 71.393783 71.508425 33.019572 -6.206455 26.029137 -98.878724
